<svg width="25" height="25" viewBox="0 0 25 25" fill="none" xmlns="http://www.w3.org/2000/svg">
<path d="M25 22.9828H2.0167V0H1.1083V22.9828H0V23.8922H1.1083V25H2.0167V23.8922H25V22.9828Z" fill="white"/>
<path d="M9.89636 11.5245C9.6451 11.5245 9.44165 11.7274 9.44165 11.9787V21.3537C9.44165 21.6049 9.6451 21.8084 9.89636 21.8084H11.9787C12.2299 21.8084 12.4334 21.6049 12.4334 21.3537V11.9787C12.4334 11.7274 12.2299 11.5245 11.9787 11.5245H9.89636Z" fill="white"/>
<path d="M4.6876 15.6906C4.43634 15.6906 4.2334 15.8946 4.2334 16.1453V21.3536C4.2334 21.6049 4.43634 21.8084 4.6876 21.8084H6.77143C7.02168 21.8084 7.22564 21.6049 7.22564 21.3536V16.1453C7.22564 15.8946 7.02168 15.6906 6.77143 15.6906H4.6876Z" fill="white"/>
<path d="M15.1041 15.6906C14.8534 15.6906 14.6499 15.8946 14.6499 16.1453V21.3536C14.6499 21.6049 14.8534 21.8084 15.1041 21.8084H17.1874C17.4387 21.8084 17.6421 21.6049 17.6421 21.3536V16.1453C17.6421 15.8946 17.4387 15.6906 17.1874 15.6906H15.1041Z" fill="white"/>
<path d="M20.3126 10.4828C20.0614 10.4828 19.8579 10.6862 19.8579 10.9375V21.3537C19.8579 21.6049 20.0614 21.8084 20.3126 21.8084H22.396C22.6467 21.8084 22.8502 21.6049 22.8502 21.3537V10.9375C22.8502 10.6862 22.6467 10.4828 22.396 10.4828H20.3126Z" fill="white"/>
<path d="M4.28917 14.8127C4.39293 14.8127 4.49669 14.7776 4.58214 14.7053L11.5534 8.81241L15.3828 12.651C15.4678 12.737 15.5914 12.7741 15.7048 12.7843C15.8258 12.7838 15.9418 12.736 16.0272 12.65L22.3647 6.25757C22.5417 6.07955 22.5397 5.79116 22.3617 5.61467C22.1836 5.43767 21.8953 5.43817 21.7193 5.61721L15.7032 11.6851L11.9013 7.87449C11.7344 7.70665 11.4674 7.69546 11.2863 7.84805L3.99519 14.0111C3.80293 14.1733 3.77953 14.4602 3.94178 14.652C4.03131 14.7583 4.15999 14.8127 4.28917 14.8127Z" fill="white"/>
</svg>
