<svg width="25" height="25" viewBox="0 0 25 25" fill="none" xmlns="http://www.w3.org/2000/svg">
<path d="M21.717 13.8191C21.717 13.4422 21.8426 13.0653 21.8426 12.5628C21.8426 12.0603 21.8426 11.6834 21.717 11.3065L24.3552 9.17085C24.6065 8.9196 24.6065 8.66834 24.4808 8.41709L21.9683 4.0201C21.8426 3.89447 21.5914 3.76884 21.2145 3.89447L18.0738 5.15075C17.4457 4.64824 16.6919 4.27136 15.9381 3.89447L15.4356 0.628141C15.5612 0.251256 15.1843 0 14.9331 0H9.90799C9.65668 0 9.27985 0.251256 9.27985 0.502513L8.77733 3.89447C8.02357 4.14573 7.39543 4.64824 6.64166 5.15075L3.62659 3.89447C3.24971 3.76884 2.99845 3.89447 2.74715 4.14573L0.234587 8.54271C0.108959 8.66834 0.234587 9.04523 0.485843 9.29648L3.12403 11.3065C3.12403 11.6834 2.9984 12.0603 2.9984 12.5628C2.9984 13.0653 2.9984 13.4422 3.12403 13.8191L0.485843 15.9548C0.234587 16.2061 0.234587 16.4573 0.360215 16.7086L2.87277 21.1056C2.9984 21.2312 3.24961 21.3568 3.62654 21.2312L6.76724 19.9749C7.39538 20.4774 8.14915 20.8543 8.90291 21.2312L9.40542 24.4975C9.40542 24.7488 9.65668 25 10.0336 25H15.0587C15.31 25 15.6868 24.7487 15.6868 24.4975L16.1893 21.2312C16.9431 20.8543 17.6969 20.4774 18.325 19.9749L21.4657 21.2312C21.717 21.3568 22.0938 21.2312 22.2195 20.9799L24.7321 16.5829C24.8577 16.3317 24.8577 15.9548 24.6064 15.8291L21.717 13.8191ZM12.4205 16.9598C10.0336 16.9598 8.02357 14.9497 8.02357 12.5628C8.02357 10.1759 10.0336 8.16583 12.4205 8.16583C14.8075 8.16583 16.8175 10.1759 16.8175 12.5628C16.8175 14.9497 14.8075 16.9598 12.4205 16.9598Z" fill="white"/>
</svg>
